<?xml version="1.0" encoding="UTF-8"?>
<svg width="24px" height="24px" viewBox="0 0 24 24" version="1.1" xmlns="http://www.w3.org/2000/svg" xmlns:xlink="http://www.w3.org/1999/xlink">
    <!-- Generator: Sketch 46.2 (44496) - http://www.bohemiancoding.com/sketch -->
    <title>decreasing</title>
    <desc>Created with Sketch.</desc>
    <defs></defs>
    <g id="Visualization" stroke="none" stroke-width="1" fill="none" fill-rule="evenodd">
        <g id="ERM-Risk-v4---Mockup-structure" transform="translate(-1156.000000, -23.000000)" fill-rule="nonzero" fill="#000">
            <path d="M1172.24237,40.242895 L1166.58551,40.242895 C1166.30974,40.242895 1166.05943,40.1311721 1165.87841,39.9501528 C1165.69739,39.7691335 1165.58637,39.5195248 1165.58567,39.243046 C1165.58637,38.6907956 1166.03397,38.243197 1166.58551,38.243197 L1169.82831,38.243197 L1163.04998,31.4648714 C1162.65966,31.0745485 1162.65966,30.4409808 1163.04998,30.0506579 C1163.44101,29.6596278 1164.07387,29.6603349 1164.46419,30.0506579 L1171.24252,36.8289835 L1171.24252,33.5861918 C1171.24323,33.0339414 1171.69083,32.5863428 1172.24237,32.5863428 C1172.79533,32.5863428 1173.24293,33.0339414 1173.24222,33.5861918 L1173.24293,39.2423389 C1173.24293,39.3724466 1173.21606,39.5025542 1173.16514,39.6255908 C1173.06403,39.8695426 1172.86957,40.063997 1172.62491,40.1658204 C1172.50258,40.2160249 1172.37248,40.242895 1172.24237,40.242895 M1168,23 C1161.384,23 1156,28.383 1156,35 C1156,41.616 1161.384,47 1168,47 C1174.617,47 1180,41.616 1180,35 C1180,28.383 1174.617,23 1168,23" id="risk-decreasing"></path>
        </g>
    </g>
</svg>