<?xml version="1.0" encoding="UTF-8"?>
<svg width="24px" height="24px" viewBox="0 0 24 24" version="1.1" xmlns="http://www.w3.org/2000/svg" xmlns:xlink="http://www.w3.org/1999/xlink">
    <!-- Generator: Sketch 46.2 (44496) - http://www.bohemiancoding.com/sketch -->
    <title>increasing</title>
    <desc>Created with Sketch.</desc>
    <defs></defs>
    <g id="Visualization" stroke="none" stroke-width="1" fill="none" fill-rule="evenodd">
        <g id="ERM-Risk-v4---Mockup-structure" transform="translate(-904.000000, -23.000000)" fill-rule="nonzero" fill="#000">
            <path d="M921.242395,36.413735 C921.242395,36.6895067 921.130672,36.9398225 920.949653,37.1208418 C920.768633,37.3018611 920.519025,37.4128769 920.242546,37.413584 C919.690296,37.4128769 919.242697,36.9652783 919.242697,36.413735 L919.242697,33.1709433 L912.464371,39.9492689 C912.074048,40.3395919 911.440481,40.3395919 911.050158,39.9492689 C910.659128,39.5582389 910.659835,38.9253783 911.050158,38.5350554 L917.828483,31.7567297 L914.585692,31.7567297 C914.033441,31.7560226 913.585843,31.308424 913.585843,30.7568808 C913.585843,30.2039233 914.033441,29.7563247 914.585692,29.7570318 L920.241839,29.7563247 C920.371947,29.7563247 920.502054,29.7831947 920.625091,29.8341064 C920.869043,29.9352227 921.063497,30.129677 921.16532,30.374336 C921.215525,30.4966655 921.242395,30.6267731 921.242395,30.7568808 L921.242395,36.413735 Z M904,35 C904,41.616 909.384,47 916,47 C922.617,47 928,41.616 928,35 C928,28.383 922.617,23 916,23 C909.384,23 904,28.383 904,35 Z" id="risk-increasing"></path>
        </g>
    </g>
</svg>