<svg xmlns="http://www.w3.org/2000/svg" xmlns:xlink="http://www.w3.org/1999/xlink" viewBox="0 0 50 50" version="1.1" width="24" height="24">
<g id="surface1">
<path style=" " d="M 25 0 C 11.214844 0 0 11.214844 0 25 C 0 38.785156 11.214844 50 25 50 C 38.785156 50 50 38.785156 50 25 C 50 11.214844 38.785156 0 25 0 Z M 26.796875 36.933594 C 26.796875 37.148438 26.652344 37.292969 26.4375 37.292969 L 23.714844 37.292969 C 23.496094 37.292969 23.355469 37.148438 23.355469 36.933594 L 23.355469 33.851563 C 23.355469 33.636719 23.496094 33.492188 23.714844 33.492188 L 26.4375 33.492188 C 26.652344 33.492188 26.796875 33.636719 26.796875 33.851563 Z M 29.953125 23.269531 L 27.550781 26.570313 C 26.832031 27.539063 26.617188 28.039063 26.617188 29.261719 L 26.617188 30.40625 C 26.617188 30.621094 26.472656 30.765625 26.257813 30.765625 L 23.890625 30.765625 C 23.675781 30.765625 23.535156 30.621094 23.535156 30.40625 L 23.535156 28.9375 C 23.535156 27.503906 23.855469 26.75 24.609375 25.710938 L 27.011719 22.410156 C 28.265625 20.6875 28.695313 19.863281 28.695313 18.644531 C 28.695313 16.597656 27.261719 15.308594 25.21875 15.308594 C 23.210938 15.308594 21.917969 16.527344 21.488281 18.714844 C 21.453125 18.929688 21.308594 19.039063 21.09375 19.003906 L 18.835938 18.605469 C 18.621094 18.570313 18.511719 18.429688 18.546875 18.210938 C 19.085938 14.769531 21.5625 12.507813 25.292969 12.507813 C 29.164063 12.507813 31.78125 15.054688 31.78125 18.605469 C 31.78125 20.328125 31.171875 21.585938 29.953125 23.269531 Z "/>
</g>
</svg>