<?xml version="1.0" encoding="UTF-8"?>
<svg width="24px" height="24px" viewBox="0 0 24 24" version="1.1" xmlns="http://www.w3.org/2000/svg" xmlns:xlink="http://www.w3.org/1999/xlink">
    <!-- Generator: Sketch 46.2 (44496) - http://www.bohemiancoding.com/sketch -->
    <title>stable</title>
    <desc>Created with Sketch.</desc>
    <defs></defs>
    <g id="Visualization" stroke="none" stroke-width="1" fill="none" fill-rule="evenodd">
        <g id="ERM-Risk-v4---Mockup-structure" transform="translate(-1046.000000, -23.000000)" fill-rule="nonzero" fill="#000">
            <path d="M1064.707,35.707 L1060.707,39.707 C1060.512,39.902 1060.256,40 1060,40 C1059.744,40 1059.489,39.902 1059.293,39.707 C1058.903,39.316 1058.903,38.683 1059.293,38.293 L1061.586,36 L1052,36 C1051.448,36 1051,35.552 1051,35 C1051,34.447 1051.448,34 1052,34 L1061.586,34 L1059.293,31.707 C1058.903,31.316 1058.903,30.683 1059.293,30.293 C1059.684,29.902 1060.317,29.902 1060.707,30.293 L1064.707,34.292 C1064.799,34.384 1064.872,34.495 1064.923,34.618 C1065.024,34.862 1065.024,35.137 1064.923,35.382 C1064.872,35.504 1064.799,35.615 1064.707,35.707 M1058,23 C1051.384,23 1046,28.383 1046,35 C1046,41.616 1051.384,47 1058,47 C1064.617,47 1070,41.616 1070,35 C1070,28.383 1064.617,23 1058,23" id="risk-stable"></path>
        </g>
    </g>
</svg>